<?xml version="1.0" standalone="no"?>
<!DOCTYPE svg PUBLIC "-//W3C//DTD SVG 20010904//EN"
 "http://www.w3.org/TR/2001/REC-SVG-20010904/DTD/svg10.dtd">
<svg version="1.0" xmlns="http://www.w3.org/2000/svg"
 width="3252.000000pt" height="3252.000000pt" viewBox="0 0 3252.000000 3252.000000"
 preserveAspectRatio="xMidYMid meet">

<g transform="translate(0.000000,3252.000000) scale(0.100000,-0.100000)"
fill="#000000" stroke="none">
<path d="M15816 32509 c-1402 -34 -2842 -263 -4196 -665 -2277 -677 -4382
-1852 -6166 -3440 -244 -218 -345 -317 -314 -310 106 25 589 120 732 145 478
84 936 137 1396 162 272 15 937 6 1157 -15 1167 -112 1919 -468 2353 -1113
188 -279 313 -666 351 -1083 7 -77 11 -1001 11 -2767 l0 -2653 -558 0 -557 0
-340 340 c-187 187 -343 340 -347 340 -3 0 -67 -38 -141 -85 -658 -414 -1399
-614 -2182 -590 -661 21 -1115 112 -1525 307 -788 374 -1176 1100 -1147 2148
10 369 71 643 203 916 358 740 1173 1156 2471 1261 264 21 970 24 1213 5 297
-24 574 -57 841 -102 64 -11 122 -20 128 -20 9 0 11 89 8 383 -4 437 -9 473
-92 641 -159 321 -495 499 -1051 556 -136 14 -590 14 -835 0 -671 -39 -1430
-152 -2146 -319 l-123 -28 -2 709 -3 710 -251 -254 c-282 -284 -369 -376 -593
-628 -1316 -1478 -2356 -3191 -3053 -5030 -871 -2298 -1207 -4762 -987 -7240
320 -3614 1855 -7023 4356 -9675 170 -181 591 -600 758 -755 2452 -2280 5514
-3739 8815 -4199 1485 -207 3035 -207 4520 0 3034 423 5864 1687 8215 3668
688 579 1382 1274 1961 1961 2063 2450 3348 5426 3713 8600 140 1210 140 2530
0 3740 -382 3322 -1773 6427 -4000 8930 -400 450 -890 940 -1344 1345 -2076
1850 -4587 3134 -7290 3729 -833 183 -1619 293 -2505 351 -214 14 -965 37
-1085 33 -27 -1 -193 -5 -369 -9z m709 -4040 c696 -38 1398 -165 2030 -367
l150 -48 3 -803 c2 -763 1 -803 -15 -796 -679 269 -1441 435 -2233 486 -287
18 -794 16 -979 -5 -647 -71 -987 -263 -1078 -606 -25 -95 -22 -298 6 -405 62
-235 209 -391 442 -469 172 -57 187 -58 1164 -66 910 -8 994 -11 1230 -50 999
-163 1593 -699 1769 -1597 44 -224 51 -311 51 -633 0 -321 -5 -384 -51 -610
-197 -966 -946 -1553 -2215 -1734 -317 -46 -547 -59 -999 -59 -758 -1 -1385
63 -2020 203 -281 62 -786 205 -813 229 -4 4 -6 365 -5 803 l3 795 130 -49
c535 -200 1170 -343 1810 -407 344 -35 548 -45 915 -45 293 -1 376 2 473 17
323 49 512 129 662 281 84 85 128 159 160 268 35 122 35 341 0 484 -52 211
-200 374 -402 445 -151 53 -121 51 -1128 59 -863 7 -954 9 -1111 28 -367 45
-619 117 -884 253 -548 283 -873 805 -965 1554 -25 198 -31 588 -12 766 94
878 551 1460 1408 1795 617 240 1488 339 2504 283z m10445 -8464 l0 -765
-3637 2 -3638 3 -3 763 -2 762 3640 0 3640 0 0 -765z m-15500 -10479 l0 -4974
-205 -51 c-839 -210 -1728 -344 -2600 -392 -283 -15 -904 -16 -1085 0 -1002
85 -1725 380 -2260 921 -651 658 -979 1672 -980 3030 -1 1863 688 3005 2085
3460 621 202 1499 268 2130 160 255 -43 611 -149 871 -260 l114 -48 0 1564 0
1564 965 0 965 0 0 -4974z m5468 2194 c790 -57 1417 -264 1908 -632 126 -93
334 -295 435 -420 365 -455 588 -1044 673 -1783 30 -261 39 -473 33 -820 -6
-333 -10 -393 -44 -682 l-16 -143 -2535 -2 -2535 -3 2 -94 c1 -51 11 -147 22
-212 118 -724 674 -1144 1679 -1269 537 -66 1383 -43 2210 61 211 26 683 99
746 115 l24 6 0 -766 c0 -421 -2 -766 -4 -766 -2 0 -47 -9 -101 -20 -614 -126
-1375 -192 -2250 -193 -562 -1 -875 20 -1278 88 -1592 269 -2555 1151 -2866
2625 -79 373 -111 719 -111 1200 0 592 55 1048 180 1487 158 558 392 975 750
1334 309 311 648 518 1095 672 339 116 771 197 1175 220 142 8 677 6 808 -3z
m5634 -2 c3 -7 418 -1203 923 -2658 505 -1455 921 -2648 924 -2652 3 -3 438
1189 965 2650 528 1461 962 2660 966 2665 3 4 463 6 1021 5 l1015 -3 -1552
-3815 -1551 -3815 -918 0 -918 0 -1448 3790 c-797 2085 -1453 3802 -1458 3818
l-10 27 1018 0 c806 0 1020 -3 1023 -12z"/>
<path d="M7723 10115 c-429 -56 -728 -189 -974 -434 -280 -281 -434 -665 -489
-1221 -14 -146 -14 -565 0 -741 57 -709 244 -1205 581 -1539 345 -342 814
-483 1498 -450 399 19 717 69 1089 171 l112 31 0 1903 0 1904 -82 49 c-307
184 -656 289 -1102 332 -148 14 -507 11 -633 -5z"/>
<path d="M16250 10205 c-521 -57 -895 -280 -1126 -672 -129 -217 -220 -515
-257 -835 l-13 -118 1628 0 1628 0 0 115 c0 373 -99 734 -268 975 -105 150
-278 294 -457 380 -286 139 -731 199 -1135 155z"/>
<path d="M7368 24110 c-608 -55 -964 -280 -1069 -675 -27 -100 -37 -323 -20
-447 36 -268 143 -473 316 -605 156 -119 349 -186 614 -214 136 -14 458 -6
606 14 473 67 886 227 1293 499 l102 68 0 614 0 613 -67 12 c-515 89 -842 119
-1343 126 -184 2 -379 0 -432 -5z"/>
</g>
</svg>
